HIERARCHY
ROOT Hips
{
  OFFSET 50.9792 86.854 5.77114
  CHANNELS 6 Xposition Yposition Zposition Zrotation Xrotation Yrotation
  JOINT spine
  {
    OFFSET 0 6.84637 0.3937
    CHANNELS 3 Zrotation Xrotation Yrotation
    JOINT spine1
    {
      OFFSET 0 9.49621 0
      CHANNELS 3 Zrotation Xrotation Yrotation
      JOINT spine2
      {
        OFFSET 0 9.09909 0
        CHANNELS 3 Zrotation Xrotation Yrotation
        JOINT Neck
        {
          OFFSET 0 23.3612 1.11378
          CHANNELS 3 Zrotation Xrotation Yrotation
          JOINT Head
          {
            OFFSET 0 7.05802 0
            CHANNELS 3 Zrotation Xrotation Yrotation
            End Site
            {
              OFFSET 0 17.0844 -5.63419
            }
          }
        }
        JOINT RightShoulder
        {
          OFFSET -3.83136 9.82631 -0.533491
          CHANNELS 3 Zrotation Xrotation Yrotation
          JOINT RightArm
          {
            OFFSET 0 12.8881 0
            CHANNELS 3 Zrotation Xrotation Yrotation
            JOINT RightArmRoll
            {
              OFFSET 0 6.50617 0
              CHANNELS 3 Zrotation Xrotation Yrotation
              JOINT RightForeArm
              {
                OFFSET 0 18.9501 0
                CHANNELS 3 Zrotation Xrotation Yrotation
                JOINT RightForeArmRoll
                {
                  OFFSET 0 7.30092 0
                  CHANNELS 3 Zrotation Xrotation Yrotation
                  JOINT RightHand
                  {
                    OFFSET 0 14.6514 0
                    CHANNELS 3 Zrotation Xrotation Yrotation
                    End Site
                    {
                      OFFSET 0 0 0
                    }
                  }
                }
              }
            }
          }
        }
        JOINT LeftShoulder
        {
          OFFSET 3.83136 9.82631 -0.533491
          CHANNELS 3 Zrotation Xrotation Yrotation
          JOINT LeftArm
          {
            OFFSET 0 12.8881 0
            CHANNELS 3 Zrotation Xrotation Yrotation
            JOINT LeftArmRoll
            {
              OFFSET 0 6.50617 0
              CHANNELS 3 Zrotation Xrotation Yrotation
              JOINT LeftForeArm
              {
                OFFSET 0 18.9501 0
                CHANNELS 3 Zrotation Xrotation Yrotation
                JOINT LeftForeArmRoll
                {
                  OFFSET 0 7.30093 0
                  CHANNELS 3 Zrotation Xrotation Yrotation
                  JOINT LeftHand
                  {
                    OFFSET 0 14.6514 0
                    CHANNELS 3 Zrotation Xrotation Yrotation
                    End Site
                    {
                      OFFSET 0 0 0
                    }
                  }
                }
              }
            }
          }
        }
      }
    }
  }
  JOINT RightUpLeg
  {
    OFFSET -6.06837 -1.11278 -0.933477
    CHANNELS 3 Zrotation Xrotation Yrotation
    JOINT RightUpLegRoll
    {
      OFFSET 0 17.1796 0
      CHANNELS 3 Zrotation Xrotation Yrotation
      JOINT RightLeg
      {
        OFFSET 0 -21.2743 0
        CHANNELS 3 Zrotation Xrotation Yrotation
        JOINT RightLegRoll
        {
          OFFSET 0 21.3439 0
          CHANNELS 3 Zrotation Xrotation Yrotation
          JOINT RightFoot
          {
            OFFSET 0 17.7652 0
            CHANNELS 3 Zrotation Xrotation Yrotation
            JOINT RightToeBase
            {
              OFFSET 0 14.8508 0
              CHANNELS 3 Zrotation Xrotation Yrotation
              End Site
              {
                OFFSET 0.0062947 7.19213 -0.829005
              }
            }
          }
        }
      }
    }
  }
  JOINT LeftUpLeg
  {
    OFFSET 6.06837 -1.11278 -0.933477
    CHANNELS 3 Zrotation Xrotation Yrotation
    JOINT LeftUpLegRoll
    {
      OFFSET 0 17.1797 0
      CHANNELS 3 Zrotation Xrotation Yrotation
      JOINT LeftLeg
      {
        OFFSET 0 21.2742 0
        CHANNELS 3 Zrotation Xrotation Yrotation
        JOINT LeftLegRoll
        {
          OFFSET 0 21.5412 0
          CHANNELS 3 Zrotation Xrotation Yrotation
          JOINT LeftFoot
          {
            OFFSET 0 17.5679 0
            CHANNELS 3 Zrotation Xrotation Yrotation
            JOINT LeftToeBase
            {
              OFFSET 0 14.8508 0
              CHANNELS 3 Zrotation Xrotation Yrotation
              End Site
              {
                OFFSET -0.0282102 7.19214 -0.829004
              }
            }
          }
        }
      }
    }
  }
}
MOTION
Frames: 10
Frame Time: 0.00208333
49.4414 86.6094 3.11936 2.62678 -2.43724 11.2879 2.3368 0.526289 0.591502 4.67819 5.06854 0.845412 4.67656 6.71037 0.767815 -47.6082 21.282 11.1385 26.6487 17.256 -9.07191 20.2901 0.418565 6.91121 103.953 64.2975 9.40339 9.38627e-007 -4.54255e-007 -1.64869e-006 9.93976 20.3238 -2.67355 -1.08465e-006 -1.71403e-006 -3.00587 8.02935 -4.95144 0.697679 -70.6962 -13.3453 7.91866 -83.8457 10.6009 43.8514 -1.14343e-005 6.88378e-007 -3.61443e-007 108.332 73.1528 -89.4752 6.00043e-006 3.84188e-006 3.00158 -8.02916 -4.95144 -0.697682 178.017 13.2437 -0.199525 180 7.01493e-015 178.709 175.248 25.527 -179.254 -2.2066e-006 -3.05657e-006 0.715857 -27.4214 72.5033 24.8381 8.13649 25.2327 -3.48773 179.952 12.2834 3.74193 4.54188e-006 -4.6773e-006 -0.928484 0.55517 -21.5351 1.15322 -6.43784e-007 7.63522e-007 -0.430621 15.7059 69.8448 -20.9573 -8.13649 25.2327 3.48774 
49.454 86.6098 3.12348 2.63806 -2.45478 11.1933 2.32738 0.517557 0.59834 4.65913 5.05138 0.862324 4.65724 6.69324 0.78507 -47.3778 21.3528 11.0936 26.4334 17.1785 -9.01163 20.5755 0.370256 6.78521 104.263 64.0848 8.77123 9.38627e-007 -4.54255e-007 -1.64869e-006 10.0657 20.6515 -2.71622 -1.08465e-006 -1.71403e-006 -3.00586 8.02935 -4.95144 0.697679 -70.5216 -13.2826 7.89306 -83.9578 11.2342 43.6678 -1.14343e-005 6.88378e-007 -3.61443e-007 107.367 73.4523 -88.8828 6.00043e-006 3.84188e-006 3.00158 -8.02916 -4.95144 -0.697682 177.993 13.2315 -0.191581 180 -7.01493e-015 178.711 175.261 25.5305 -179.26 -2.2066e-006 -3.05657e-006 0.715872 -27.396 72.5033 24.8345 8.13649 25.2327 -3.48773 179.934 12.2392 3.73766 4.54188e-006 -4.6773e-006 -0.930179 0.542263 -21.5398 1.14902 -6.43784e-007 7.63522e-007 -0.431868 15.7527 69.8755 -20.9848 -8.13649 25.2327 3.48774 
49.4711 86.6132 3.1336 2.64909 -2.47261 11.0986 2.31814 0.508973 0.605022 4.64043 5.03451 0.878926 4.63828 6.67639 0.802008 -47.1482 21.4218 11.0486 26.2176 17.1016 -8.95149 20.8592 0.319837 6.65785 104.568 63.8701 8.1404 9.38627e-007 -4.54255e-007 -1.64869e-006 10.1892 20.9798 -2.75815 -1.08465e-006 -1.71403e-006 -3.00584 8.02935 -4.95144 0.697679 -70.348 -13.2192 7.86688 -84.0708 11.8752 43.4755 -1.14343e-005 6.88378e-007 -3.61443e-007 106.361 73.7548 -88.2539 6.00043e-006 3.84188e-006 3.00157 -8.02916 -4.95144 -0.697682 177.969 13.219 -0.183602 180 7.01494e-015 178.712 175.274 25.534 -179.265 -2.2066e-006 -3.05657e-006 0.715865 -27.3706 72.5032 24.8308 8.13649 25.2327 -3.48773 179.916 12.1949 3.73311 4.54188e-006 -4.6773e-006 -0.931882 0.529302 -21.5447 1.14478 -6.43784e-007 7.63522e-007 -0.43313 15.7999 69.9063 -21.0125 -8.13649 25.2327 3.48774 
49.4921 86.6122 3.1419 2.65916 -2.49024 11.0038 2.30914 0.500395 0.611479 4.62223 5.01764 0.895037 4.61983 6.65954 0.818446 -46.9194 21.4891 11.0035 26.0015 17.0256 -8.89135 21.1412 0.267652 6.52959 104.868 63.6535 7.51177 9.38627e-007 -4.54255e-007 -1.64869e-006 10.3099 21.3087 -2.79921 -1.08465e-006 -1.71403e-006 -3.00583 8.02935 -4.95144 0.697679 -70.1752 -13.1553 7.84023 -84.186 12.5225 43.2738 -1.14343e-005 6.88378e-007 -3.61443e-007 105.312 74.0594 -87.587 6.00043e-006 3.84188e-006 3.00157 -8.02916 -4.95144 -0.697682 177.946 13.2066 -0.176145 180 7.01494e-015 178.714 175.287 25.5368 -179.27 -2.2066e-006 -3.05657e-006 0.715825 -27.3448 72.5028 24.8267 8.13649 25.2327 -3.48773 179.899 12.1515 3.7279 4.54188e-006 -4.6773e-006 -0.933563 0.516344 -21.5505 1.14056 -6.43784e-007 7.63522e-007 -0.434419 15.8475 69.9374 -21.0406 -8.13649 25.2327 3.48774 
49.53 86.6211 3.15731 2.66756 -2.50718 10.909 2.30046 0.491678 0.617643 4.60468 5.00048 0.910475 4.60204 6.64241 0.834199 -46.6913 21.5545 10.9586 25.7855 16.9509 -8.8311 21.4215 0.214045 6.40091 105.163 63.4351 6.88616 9.38627e-007 -4.54255e-007 -1.64869e-006 10.4275 21.6383 -2.83925 -1.08465e-006 -1.71403e-006 -3.00581 8.02935 -4.95144 0.697679 -70.0027 -13.0912 7.81326 -84.3047 13.1746 43.0619 -1.14343e-005 6.88378e-007 -3.61443e-007 104.222 74.3653 -86.8805 6.00043e-006 3.84188e-006 3.00157 -8.02916 -4.95144 -0.697682 177.925 13.1947 -0.169765 180 7.01494e-015 178.715 175.3 25.5388 -179.276 -2.2066e-006 -3.05657e-006 0.71574 -27.3187 72.5019 24.8218 8.13649 25.2327 -3.48773 179.883 12.1099 3.72164 4.54188e-006 -4.6773e-006 -0.935192 0.503445 -21.5577 1.1364 -6.43784e-007 7.63522e-007 -0.435747 15.8955 69.9689 -21.0692 -8.13649 25.2327 3.48774 
49.5497 86.6242 3.17801 2.67359 -2.52293 10.8143 2.29218 0.48268 0.623447 4.58794 4.98275 0.925058 4.58507 6.62469 0.849084 -46.464 21.6179 10.9142 25.5701 16.8778 -8.7706 21.7001 0.159362 6.27226 105.453 63.2149 6.26439 9.38627e-007 -4.54255e-007 -1.64869e-006 10.5415 21.9687 -2.87812 -1.08465e-006 -1.71403e-006 -3.0058 8.02935 -4.95144 0.697679 -69.83 -13.0272 7.78607 -84.4281 13.83 42.8386 -1.14343e-005 6.88378e-007 -3.61443e-007 103.089 74.6716 -86.133 6.00043e-006 3.84188e-006 3.00156 -8.02916 -4.95144 -0.697682 177.906 13.1838 -0.165018 180 7.01495e-015 178.716 175.312 25.5393 -179.281 -2.2066e-006 -3.05657e-006 0.7156 -27.292 72.5003 24.816 8.13649 25.2327 -3.48773 179.87 12.0712 3.71394 4.54188e-006 -4.6773e-006 -0.93674 0.490662 -21.5669 1.13235 -6.43784e-007 7.63522e-007 -0.437127 15.9439 70.001 -21.0985 -8.13649 25.2327 3.48774 
49.57 86.6261 3.18624 2.67655 -2.53699 10.7196 2.28436 0.473257 0.628821 4.57215 4.96414 0.938606 4.56907 6.60611 0.862914 -46.2376 21.6791 10.8705 25.3556 16.8067 -8.70974 21.9772 0.103947 6.14412 105.737 62.9929 5.64722 9.38627e-007 -4.54255e-007 -1.64869e-006 10.6516 22.3001 -2.91569 -1.08465e-006 -1.71403e-006 -3.00579 8.02935 -4.95144 0.697679 -69.6568 -12.9634 7.75878 -84.5576 14.4872 42.603 -1.14343e-005 6.88378e-007 -3.61443e-007 101.911 74.9774 -85.3429 6.00043e-006 3.84188e-006 3.00156 -8.02916 -4.95144 -0.697682 177.89 13.1744 -0.16246 180 7.01495e-015 178.717 175.324 25.5381 -179.286 -2.2066e-006 -3.05657e-006 0.715393 -27.2646 72.4977 24.8088 8.13649 25.2327 -3.48773 179.86 12.0364 3.70444 4.54188e-006 -4.6773e-006 -0.938177 0.47805 -21.5786 1.12845 -6.43784e-007 7.63522e-007 -0.438572 15.9928 70.0339 -21.1285 -8.13649 25.2327 3.48774 
49.5881 86.6243 3.20231 2.67574 -2.54887 10.6252 2.27709 0.463268 0.633697 4.55747 4.94438 0.950938 4.55418 6.58636 0.875508 -46.0119 21.7382 10.8276 25.1423 16.7379 -8.64839 22.2528 0.0481485 6.01695 106.017 62.7693 5.0354 9.38627e-007 -4.54255e-007 -1.64869e-006 10.7575 22.6324 -2.9518 -1.08465e-006 -1.71403e-006 -3.00577 8.02935 -4.95144 0.697679 -69.4826 -12.9001 7.73153 -84.6943 15.1446 42.354 -1.14343e-005 6.88378e-007 -3.61443e-007 100.69 75.2817 -84.5086 6.00043e-006 3.84188e-006 3.00156 -8.02916 -4.95144 -0.697682 177.879 13.1669 -0.162647 180 7.01495e-015 178.718 175.335 25.5347 -179.291 -2.2066e-006 -3.05657e-006 0.715109 -27.2363 72.4939 24.8 8.13649 25.2327 -3.48773 179.854 12.0066 3.69274 4.54188e-006 -4.6773e-006 -0.939473 0.465665 -21.5935 1.12474 -6.43784e-007 7.63522e-007 -0.440094 16.0422 70.0677 -21.1594 -8.13649 25.2327 3.48774 
49.6034 86.6269 3.21115 2.67048 -2.55808 10.531 2.27043 0.452568 0.638007 4.54404 4.92317 0.96187 4.54057 6.56517 0.88668 -45.787 21.795 10.7858 24.9308 16.6717 -8.58643 22.5269 -0.00768801 5.89122 106.292 62.5442 4.42964 9.38627e-007 -4.54255e-007 -1.64869e-006 10.8588 22.9658 -2.98632 -1.08465e-006 -1.71403e-006 -3.00576 8.02935 -4.95144 0.697679 -69.307 -12.8376 7.70443 -84.8394 15.8008 42.0903 -1.14343e-005 6.88378e-007 -3.61443e-007 99.4244 75.5837 -83.6289 6.00043e-006 3.84188e-006 3.00155 -8.02916 -4.95144 -0.697682 177.873 13.1617 -0.166135 180 7.01496e-015 178.719 175.346 25.5287 -179.295 -2.2066e-006 -3.05657e-006 0.714736 -27.2069 72.4887 24.7892 8.13649 25.2327 -3.48773 179.853 11.9827 3.67847 4.54188e-006 -4.6773e-006 -0.940598 0.453564 -21.6121 1.12129 -6.43784e-007 7.63522e-007 -0.441706 16.0921 70.1024 -21.1914 -8.13649 25.2327 3.48774 
49.6329 86.6314 3.21863 2.66006 -2.56411 10.4372 2.26447 0.441015 0.641682 4.53201 4.90023 0.971224 4.52838 6.54224 0.896246 -45.5629 21.8494 10.7453 24.7213 16.6087 -8.52372 22.7996 -0.0632148 5.76739 106.561 62.3177 3.83061 9.38627e-007 -4.54255e-007 -1.64869e-006 10.9551 23.3003 -3.01909 -1.08465e-006 -1.71403e-006 -3.00574 8.02935 -4.95144 0.697679 -69.1296 -12.7761 7.6776 -84.9942 16.4539 41.8106 -1.14343e-005 6.88378e-007 -3.61443e-007 98.1134 75.8825 -82.7024 6.00043e-006 3.84188e-006 3.00155 -8.02916 -4.95144 -0.697682 177.872 13.1594 -0.17348 180 7.01496e-015 178.72 175.356 25.5197 -179.3 -2.2066e-006 -3.05657e-006 0.714264 -27.1763 72.4818 24.7762 8.13649 25.2327 -3.48773 179.856 11.9658 3.66123 4.54188e-006 -4.6773e-006 -0.941523 0.441803 -21.635 1.11812 -6.43784e-007 7.63522e-007 -0.44342 16.1426 70.1384 -21.2245 -8.13649 25.2327 3.48774 
